<?xml version="1.0" encoding="UTF-8"?>
<!-- Creator: CorelDRAW 2019 (64-Bit) -->
<svg xmlns="http://www.w3.org/2000/svg" xmlns:xlink="http://www.w3.org/1999/xlink" xml:space="preserve" width="250px" height="250px" shape-rendering="geometricPrecision" text-rendering="geometricPrecision" image-rendering="optimizeQuality" fill-rule="evenodd" clip-rule="evenodd" viewBox="0 0 250 250">
 <g id="Layer_x0020_1">
  <metadata id="CorelCorpID_0Corel-Layer"></metadata>
  <circle fill="#35A4B6" cx="124.16" cy="125.06" r="125"></circle>
  <path fill="#FEFEFE" d="M112.09 12.17c-6.7,1.68 -8.8,7.2 -9.23,15.09 -0.81,14.97 2.72,28.13 7.56,41.55 1.92,5.34 1.69,3.92 -0.29,9.19 -5.85,15.62 -11.06,28.55 -17.92,43.74l-5.78 12.59c-0.75,1.51 -2.23,1.79 -3.77,2.53 -14.4,6.97 -36.48,17.25 -44.93,28.8 -4.73,6.47 -4.5,11.95 0.89,16.98 4.65,4.33 13.47,3.08 19.35,0.75 10.1,-4.01 19.83,-15.88 25.7,-23.67 3.46,-4.61 6.68,-9.49 9.95,-14.72 1.61,-2.56 3.19,-4.87 4.91,-7.44 1.46,-2.2 0.5,-1.72 3.36,-2.64 8.02,-2.59 15.13,-5.15 23.46,-7.25 6.62,-1.68 13.38,-3 20.12,-4.53 2.81,-0.63 2.53,-0.46 4.16,1.02 7.97,7.23 16.29,12.54 27.07,16.29 6.41,2.23 13.97,3.77 21.51,3.25 19.76,-1.36 19.63,-18.68 6.73,-25.2 -5.69,-2.87 -13.34,-3.85 -20.66,-4.03 -7.66,-0.19 -15.53,0.52 -22.98,1.48 -2.84,0.37 -8.2,1.42 -10.89,1.45 -1.7,0.02 -1.5,-0.53 -3.3,-2.75l-13.66 -17.34c-1.78,-2.31 -3.4,-4.65 -5.15,-7.19 -1.68,-2.43 -3.06,-4.99 -4.69,-7.65 -1.48,-2.43 -0.1,-5.08 1.16,-9.78 0.89,-3.29 1.71,-6.5 2.54,-9.8 1.71,-6.8 2.96,-13.74 3.55,-21.06 0.59,-7.35 0.14,-15.36 -2.89,-21.29 -2.26,-4.42 -8.11,-10.32 -15.88,-8.37zm-31.28 130.71c-1.84,0.53 -4.9,2.28 -6.67,3.18 -8.21,4.18 -44.26,21.11 -33.9,32.11 3.93,4.18 10.36,0.4 13.94,-2.07 5.65,-3.92 14.39,-14.83 18.79,-21.07 1.61,-2.28 7.03,-10.02 7.84,-12.15zm22.12 -13.49c2.73,-0.5 7.2,-2.18 9.98,-3.07 8.29,-2.65 12.22,-3.5 20.56,-5.35 2.83,-0.63 8.64,-1.46 10.94,-2.37 -0.39,-1.25 -5.12,-6.66 -6.31,-7.91 -2.03,-2.14 -4.45,-5.4 -6.32,-7.91l-11.72 -16.63c-1.25,2.54 -2.71,8.07 -3.77,10.95l-10.85 27.14c-0.8,1.86 -1.82,3.29 -2.51,5.15zm50.24 -8.01c0.74,1.19 3.58,2.73 4.82,3.58 5.83,3.99 9.95,5.67 16.59,8.39 7.61,3.13 19.67,8.18 25.02,0.56 2.92,-4.17 0.75,-9 -2.24,-11.3 -8.66,-6.68 -34.33,-2.6 -44.19,-1.23zm-39.26 -55.79l0.84 -1.36c3.23,-9.12 7.29,-29.66 6.64,-38.33 -0.31,-4.3 -2.07,-8.91 -7.02,-8.85 -4.02,0.05 -6.1,4.82 -6.82,8.75 -1.35,7.35 0.76,20.37 2.68,27.69 1.05,4.02 2.85,8.39 3.68,12.1z"></path>
  <g id="_2632852362016">
   <path fill="#FEFEFE" d="M112.48 213.3c1.36,0.28 8.6,0.13 10.29,0.01 3.26,-0.23 5.91,-1.07 7.86,-2.7 3.77,-3.15 6.03,-7.81 6.18,-14.94 0.13,-5.94 -1.53,-11.63 -6.02,-15.09 -2.04,-1.57 -4.75,-2.4 -7.96,-2.66 -1.88,-0.16 -8.69,-0.33 -10.32,-0.03l-0.03 35.41zm5.89 -4.69c3.96,0.59 7.87,-0.61 9.55,-2.98 1.9,-2.67 2.66,-5.97 2.67,-9.95 0.03,-8.44 -3.03,-14.18 -12.18,-13.1l-0.04 26.03z"></path>
   <path fill="#FEFEFE" d="M86.08 213.38l5.85 0 0.04 -13.8c2.93,-0.6 8.79,0.74 12.43,-2.35 5.7,-4.84 4.8,-16.99 -3.72,-18.88 -3.99,-0.88 -10.29,-0.53 -14.6,-0.52l0 35.55zm5.88 -18.67c1.77,0.32 5.7,0.02 7.18,-0.64 3.72,-1.66 3.39,-9.11 0.16,-11.03 -1.25,-0.74 -5.64,-0.83 -7.29,-0.63l-0.05 12.3z"></path>
   <polygon fill="#FEFEFE" points="142.49,213.35 148.33,213.37 148.37,197.92 159.42,197.87 159.46,193.18 148.38,193.16 148.37,182.58 162.15,182.52 162.24,177.87 142.53,177.82 "></polygon>
  </g>
 </g>
</svg>